<svg xmlns="http://www.w3.org/2000/svg" width="580" height="450" viewBox="0 0 580 450" data-theme="light" role="img" aria-labelledby="title desc">
<title id="title">AKULE — hero icon</title>
<desc id="desc">Approved geometry unchanged. Palette B, SAPPHIRE / ICE. True editable vector paths with two visible eyes. Transparent canvas. Set data-theme="dark" on the root SVG to use the included dark-background treatment. Original source image is not embedded.</desc>
<style>#dark-treatment{display:none}svg[data-theme="dark"] #light-treatment{display:none}svg[data-theme="dark"] #dark-treatment{display:inline}</style>
<g id="light-treatment">

<path id="tail" fill="#5A8FE6" stroke="#152E4D" stroke-width="5.6" stroke-linecap="round" stroke-linejoin="round" d="M151 219 C117 209 105 164 66 136 C52 125 39 119 25 116 C44 151 53 205 88 233 C60 260 46 306 29 347 C70 333 113 298 137 269 C146 258 157 253 166 249 Z"/>
<path id="tail-shadow" fill="#2563C9" stroke="none" stroke-width="0" stroke-linecap="round" stroke-linejoin="round" d="M30 119 C72 146 96 200 135 222 L151 228 C112 215 81 178 65 157 C49 139 40 126 30 119 Z M36 340 C73 315 111 273 145 248 L156 250 C119 276 93 318 36 340 Z"/>
<path id="tail-upper-rib" fill="#2052A1" stroke="none" stroke-width="0" stroke-linecap="round" stroke-linejoin="round" d="M49 137 C83 164 96 196 130 220 C102 208 81 170 49 137 Z"/>
<path id="tail-inner-rib" fill="#2052A1" stroke="none" stroke-width="0" stroke-linecap="round" stroke-linejoin="round" d="M63 187 C81 205 101 217 127 229 C102 226 78 209 63 187 Z"/>
<path id="tail-lower-rib" fill="#2052A1" stroke="none" stroke-width="0" stroke-linecap="round" stroke-linejoin="round" d="M46 328 C75 286 100 260 128 248 C108 266 83 290 46 328 Z"/>
<path id="tail-fold" fill="#2563C9" stroke="none" stroke-width="0" stroke-linecap="round" stroke-linejoin="round" d="M87 233 C105 228 123 228 138 233 C119 237 103 238 87 233 Z"/>
<path id="tail-rim-light" fill="#D8EBEE" stroke="none" stroke-width="0" stroke-linecap="round" stroke-linejoin="round" d="M35 124 C69 139 90 168 108 192 C86 169 62 143 35 124 Z M38 331 C49 294 73 261 92 241 C72 271 55 305 38 331 Z"/>
<path id="rear-dorsal" fill="#5A8FE6" stroke="#152E4D" stroke-width="5.2" stroke-linecap="round" stroke-linejoin="round" d="M176 172 C194 151 226 120 253 103 C266 93 281 101 298 116 L308 137 L206 174 C195 168 187 168 176 172 Z"/>
<path id="rear-dorsal-shadow" fill="#2563C9" stroke="none" stroke-width="0" stroke-linecap="round" stroke-linejoin="round" d="M186 167 C217 140 242 114 264 107 C276 106 288 115 297 125 L291 135 C275 121 263 116 250 121 C226 132 206 151 186 167 Z"/>
<path id="rear-dorsal-ribs" fill="#2052A1" stroke="none" stroke-width="0" stroke-linecap="round" stroke-linejoin="round" d="M245 113 C260 116 271 122 280 132 C267 126 258 118 245 113 Z M226 127 C241 128 258 137 266 145 C251 139 239 132 226 127 Z M210 143 C225 144 239 151 248 158 C233 153 222 146 210 143 Z"/>
<path id="rear-dorsal-light" fill="#D8EBEE" stroke="none" stroke-width="0" stroke-linecap="round" stroke-linejoin="round" d="M187 164 C211 138 242 111 263 106 C241 117 215 140 187 164 Z"/>
<path id="front-dorsal" fill="#5A8FE6" stroke="#152E4D" stroke-width="5.7" stroke-linecap="round" stroke-linejoin="round" d="M286 138 C303 121 310 110 314 94 C327 84 328 76 331 65 C343 58 344 46 342 28 C374 42 399 74 414 126 L378 140 Z"/>
<path id="front-dorsal-shadow" fill="#2563C9" stroke="none" stroke-width="0" stroke-linecap="round" stroke-linejoin="round" d="M342 34 C359 59 371 90 376 131 L358 135 C351 99 343 79 331 69 C343 59 347 47 342 34 Z M314 96 C328 109 331 123 333 137 L302 142 C311 128 315 111 314 96 Z"/>
<path id="dorsal-rib-one" fill="#2052A1" stroke="none" stroke-width="0" stroke-linecap="round" stroke-linejoin="round" d="M345 39 C369 64 382 96 386 133 L379 136 C375 97 363 67 345 39 Z"/>
<path id="dorsal-rib-two" fill="#2052A1" stroke="none" stroke-width="0" stroke-linecap="round" stroke-linejoin="round" d="M329 71 C345 89 353 109 358 138 L352 140 C350 112 339 86 329 71 Z"/>
<path id="dorsal-rib-three" fill="#2052A1" stroke="none" stroke-width="0" stroke-linecap="round" stroke-linejoin="round" d="M313 98 C324 110 331 125 333 142 L329 144 C326 126 321 112 313 98 Z"/>
<path id="dorsal-light" fill="#F8F5EC" stroke="none" stroke-width="0" stroke-linecap="round" stroke-linejoin="round" d="M352 41 C378 59 399 90 409 124 L397 126 C387 91 373 62 352 41 Z"/>
<path id="rear-lower-fin" fill="#5A8FE6" stroke="#152E4D" stroke-width="5.2" stroke-linecap="round" stroke-linejoin="round" d="M163 278 C184 283 195 273 212 277 L250 311 L245 325 C208 326 182 309 163 278 Z"/>
<path id="rear-lower-shadow" fill="#2563C9" stroke="none" stroke-width="0" stroke-linecap="round" stroke-linejoin="round" d="M170 283 C185 300 209 307 236 313 L245 321 C215 319 189 308 170 283 Z"/>
<path id="rear-lower-ribs" fill="#2052A1" stroke="none" stroke-width="0" stroke-linecap="round" stroke-linejoin="round" d="M181 287 C195 292 211 296 225 295 L231 301 C213 302 195 295 181 287 Z M193 306 C208 310 223 311 238 309 L243 315 C225 317 207 312 193 306 Z"/>
<path id="far-pelvic-fin" fill="#5A8FE6" stroke="#152E4D" stroke-width="5.2" stroke-linecap="round" stroke-linejoin="round" d="M365 346 L403 347 C405 371 401 387 389 401 C379 388 364 377 365 346 Z"/>
<path id="far-pelvic-ray" fill="#2052A1" stroke="none" stroke-width="0" stroke-linecap="round" stroke-linejoin="round" d="M379 355 C380 374 385 384 389 391 C389 375 389 364 387 354 Z"/>
<path id="near-pelvic-fin" fill="#5A8FE6" stroke="#152E4D" stroke-width="5.6" stroke-linecap="round" stroke-linejoin="round" d="M314 349 C334 348 351 352 368 361 C353 387 335 410 297 419 C305 395 296 367 314 349 Z"/>
<path id="near-pelvic-shadow" fill="#2563C9" stroke="none" stroke-width="0" stroke-linecap="round" stroke-linejoin="round" d="M312 360 C323 364 337 366 354 365 C341 384 324 400 304 412 C328 404 352 383 361 363 L317 352 Z"/>
<path id="pelvic-rays" fill="#2052A1" stroke="none" stroke-width="0" stroke-linecap="round" stroke-linejoin="round" d="M313 368 C326 368 338 366 348 363 C336 377 320 389 306 396 C324 381 337 371 342 366 Z M307 383 C320 372 327 363 330 358 L324 357 C320 368 314 375 307 383 Z"/>
<path id="far-eye-rim" fill="#F8F5EC" stroke="#152E4D" stroke-width="4.4" stroke-linecap="round" stroke-linejoin="round" d="M520 194 C533 188 546 197 550 211 C554 226 548 241 539 248 L521 231 Z"/>
<path id="far-iris" fill="#9EDAF2" stroke="none" stroke-width="0" stroke-linecap="round" stroke-linejoin="round" d="M531 201 C541 200 546 209 546 219 C546 231 541 239 537 241 L529 224 Z"/>
<path id="far-pupil" fill="#152E4D" stroke="none" stroke-width="0" stroke-linecap="round" stroke-linejoin="round" d="M532 201 C541 199 545 208 545 217 C545 224 542 229 538 230 L530 218 Z"/>
<path id="far-eye-glint" fill="#F8F5EC" stroke="none" stroke-width="0" stroke-linecap="round" stroke-linejoin="round" d="M542.5 205.5 C542.5 207.9853 541.0449 210 539.25 210 C537.4551 210 536 207.9853 536 205.5 C536 203.0147 537.4551 201 539.25 201 C541.0449 201 542.5 203.0147 542.5 205.5 Z"/>
<path id="body" fill="#2563C9" stroke="#152E4D" stroke-width="6.2" stroke-linecap="round" stroke-linejoin="round" d="M137 219 C171 216 206 176 256 150 C305 122 358 112 401 117 C461 123 501 154 522 193 C531 212 533 231 542 248 C550 256 552 267 546 277 C542 308 522 333 491 347 C451 367 408 374 364 365 C310 357 280 335 240 303 C201 272 173 250 138 250 C130 242 130 229 137 219 Z"/>
<path id="back-shadow" fill="#2052A1" stroke="none" stroke-width="0" stroke-linecap="round" stroke-linejoin="round" d="M137 220 C180 209 208 174 256 150 C305 122 358 112 401 117 C432 120 457 131 476 143 C410 122 369 136 331 153 C266 181 211 208 137 229 Z"/>
<path id="flank" fill="#5A8FE6" stroke="none" stroke-width="0" stroke-linecap="round" stroke-linejoin="round" d="M136 232 C202 224 243 200 291 181 C325 168 355 162 387 160 C363 185 350 215 351 245 C352 269 362 288 378 304 C324 322 284 310 245 287 C202 263 174 249 138 247 Z"/>
<path id="flank-shadow" fill="#2563C9" stroke="none" stroke-width="0" stroke-linecap="round" stroke-linejoin="round" d="M145 245 C193 249 233 272 270 288 C310 305 339 299 365 287 C371 295 379 302 387 308 C340 326 304 318 266 297 C218 272 182 254 145 250 Z"/>
<path id="belly" fill="#F8F5EC" stroke="none" stroke-width="0" stroke-linecap="round" stroke-linejoin="round" d="M143 248 C181 248 204 264 243 289 C273 311 303 328 341 335 C369 343 394 345 421 338 C472 332 513 316 539 288 C526 328 493 349 451 361 C414 371 383 369 350 362 C306 353 277 332 240 303 C201 272 173 250 143 248 Z"/>
<path id="belly-shadow" fill="#D8EBEE" stroke="none" stroke-width="0" stroke-linecap="round" stroke-linejoin="round" d="M288 333 C353 360 393 359 445 349 C483 342 513 323 536 298 C523 333 488 350 451 361 C393 379 335 356 288 333 Z"/>
<path id="face-cream" fill="#F8F5EC" stroke="none" stroke-width="0" stroke-linecap="round" stroke-linejoin="round" d="M402 185 C384 204 380 230 395 247 C413 270 446 261 474 251 C493 244 514 249 539 263 C545 277 538 301 522 318 C499 341 464 352 435 352 C399 341 372 325 362 300 C345 260 361 208 402 185 Z"/>
<path id="face-shadow" fill="#D8EBEE" stroke="none" stroke-width="0" stroke-linecap="round" stroke-linejoin="round" d="M397 191 C369 219 363 250 373 277 C381 299 392 309 407 317 C384 312 369 296 365 276 C359 245 371 209 397 191 Z M534 291 C517 326 476 342 435 346 C395 347 375 336 359 331 C380 349 408 359 438 356 C485 350 526 330 534 291 Z"/>
<path id="cheek-reflection" fill="#D8EBEE" stroke="none" stroke-width="0" stroke-linecap="round" stroke-linejoin="round" d="M393 267 C397 290 410 306 430 313 C411 314 396 298 393 267 Z"/>
<path id="body-outline" fill="none" stroke="#152E4D" stroke-width="6.2" stroke-linecap="round" stroke-linejoin="round" d="M137 219 C171 216 206 176 256 150 C305 122 358 112 401 117 C461 123 501 154 522 193 C531 212 533 231 542 248 C550 256 552 267 546 277 C542 308 522 333 491 347 C451 367 408 374 364 365 C310 357 280 335 240 303 C201 272 173 250 138 250 C130 242 130 229 137 219 Z"/>
<path id="gill-cover" fill="#152E4D" stroke="none" stroke-width="0" stroke-linecap="round" stroke-linejoin="round" d="M403 174 C374 191 354 223 352 254 C349 292 369 322 412 338 C376 331 351 312 346 282 C338 238 359 195 403 174 Z"/>
<path id="gill-light" fill="#9EDAF2" stroke="none" stroke-width="0" stroke-linecap="round" stroke-linejoin="round" d="M393 189 C369 220 365 252 377 279 C383 293 391 303 402 311 C377 300 363 279 365 254 C366 225 376 204 393 189 Z"/>
<path id="lateral-flash" fill="#F8F5EC" stroke="none" stroke-width="0" stroke-linecap="round" stroke-linejoin="round" d="M146 232 C217 222 267 198 316 191 C342 187 362 185 380 186 C359 190 339 192 317 196 C267 202 218 226 146 235 Z"/>
<path id="crown-reflection" fill="#9EDAF2" stroke="none" stroke-width="0" stroke-linecap="round" stroke-linejoin="round" d="M248 167 C296 135 350 120 399 124 C440 127 474 144 496 167 C464 145 433 134 399 131 C346 128 292 145 248 167 Z"/>
<path id="forehead-glint" fill="#F8F5EC" stroke="none" stroke-width="0" stroke-linecap="round" stroke-linejoin="round" d="M457 151 C477 156 494 167 505 186 C487 174 470 161 457 151 Z"/>
<path id="pectoral-fin" fill="#5A8FE6" stroke="#152E4D" stroke-width="5.4" stroke-linecap="round" stroke-linejoin="round" d="M349 274 C327 263 301 275 281 290 C252 311 226 344 208 370 C244 360 279 358 310 337 C331 323 347 303 349 274 Z"/>
<path id="pectoral-shadow" fill="#2563C9" stroke="none" stroke-width="0" stroke-linecap="round" stroke-linejoin="round" d="M215 365 C258 348 304 325 342 283 C334 310 316 330 294 341 C264 357 239 359 215 365 Z"/>
<path id="pectoral-leading-light" fill="#D8EBEE" stroke="none" stroke-width="0" stroke-linecap="round" stroke-linejoin="round" d="M218 358 C250 312 295 274 337 277 C298 282 255 316 218 358 Z"/>
<path id="pectoral-ray-one" fill="#2052A1" stroke="none" stroke-width="0" stroke-linecap="round" stroke-linejoin="round" d="M233 350 C273 316 309 292 340 283 C312 299 275 322 233 350 Z"/>
<path id="pectoral-ray-two" fill="#2052A1" stroke="none" stroke-width="0" stroke-linecap="round" stroke-linejoin="round" d="M266 347 C295 326 320 305 341 287 C325 312 297 334 266 347 Z"/>
<path id="pectoral-root" fill="#2052A1" stroke="none" stroke-width="0" stroke-linecap="round" stroke-linejoin="round" d="M337 274 C343 278 344 286 341 295 C347 289 350 281 348 275 Z"/>
<path id="scale-1" fill="#2052A1" stroke="none" stroke-width="0" stroke-linecap="round" stroke-linejoin="round" d="M232 224 C223 232 222 241 230 247 C216 243 214 232 232 224 Z"/>
<path id="scale-2" fill="#2052A1" stroke="none" stroke-width="0" stroke-linecap="round" stroke-linejoin="round" d="M256 215 C247 225 247 235 255 241 C240 237 238 224 256 215 Z"/>
<path id="scale-3" fill="#2052A1" stroke="none" stroke-width="0" stroke-linecap="round" stroke-linejoin="round" d="M283 207 C274 216 274 228 282 234 C267 230 266 215 283 207 Z"/>
<path id="scale-4" fill="#2052A1" stroke="none" stroke-width="0" stroke-linecap="round" stroke-linejoin="round" d="M309 202 C302 211 302 221 309 227 C295 223 294 210 309 202 Z"/>
<path id="scale-5" fill="#2052A1" stroke="none" stroke-width="0" stroke-linecap="round" stroke-linejoin="round" d="M252 247 C244 255 244 263 251 269 C238 265 236 254 252 247 Z"/>
<path id="scale-6" fill="#2052A1" stroke="none" stroke-width="0" stroke-linecap="round" stroke-linejoin="round" d="M281 239 C273 249 274 257 280 263 C267 259 265 247 281 239 Z"/>
<path id="scale-7" fill="#2052A1" stroke="none" stroke-width="0" stroke-linecap="round" stroke-linejoin="round" d="M308 233 C301 241 301 249 308 254 C295 251 294 240 308 233 Z"/>
<path id="scale-glints" fill="#D8EBEE" stroke="none" stroke-width="0" stroke-linecap="round" stroke-linejoin="round" d="M233 225 C227 232 228 239 233 242 C224 239 224 231 233 225 Z M283 208 C278 216 279 224 284 228 C275 225 275 215 283 208 Z M281 240 C276 248 277 254 282 258 C273 256 273 247 281 240 Z"/>
<path id="near-eye-rim" fill="#F8F5EC" stroke="#152E4D" stroke-width="4.5" stroke-linecap="round" stroke-linejoin="round" d="M416 199 C431 187 449 194 459 210 C471 230 466 249 452 259 C436 270 416 260 410 243 C404 227 405 208 416 199 Z"/>
<path id="near-eye-shadow" fill="#D8EBEE" stroke="none" stroke-width="0" stroke-linecap="round" stroke-linejoin="round" d="M416 203 C408 221 412 243 427 253 C438 261 450 257 458 250 C446 265 427 264 416 250 C405 237 404 216 416 203 Z"/>
<path id="near-iris" fill="#9EDAF2" stroke="none" stroke-width="0" stroke-linecap="round" stroke-linejoin="round" d="M438 200 C451 201 462 215 463 229 C465 243 457 252 447 253 C434 254 423 241 424 226 C423 215 428 205 438 200 Z"/>
<path id="iris-depth" fill="#2563C9" stroke="none" stroke-width="0" stroke-linecap="round" stroke-linejoin="round" d="M429 210 C425 227 431 242 443 247 C453 251 460 242 462 238 C460 252 448 258 437 249 C426 241 422 224 429 210 Z"/>
<path id="near-pupil" fill="#152E4D" stroke="none" stroke-width="0" stroke-linecap="round" stroke-linejoin="round" d="M440 201 C452 201 461 212 462 226 C463 238 456 245 447 244 C436 242 430 231 431 219 C431 210 434 204 440 201 Z"/>
<path id="near-eye-glint" fill="#F8F5EC" stroke="none" stroke-width="0" stroke-linecap="round" stroke-linejoin="round" d="M450 211 C450 214.3137 447.7614 217 445 217 C442.2386 217 440 214.3137 440 211 C440 207.6863 442.2386 205 445 205 C447.7614 205 450 207.6863 450 211 Z"/>
<path id="near-eye-small-glint" fill="#D8EBEE" stroke="none" stroke-width="0" stroke-linecap="round" stroke-linejoin="round" d="M457.5 236 C457.5 237.1046 456.7165 238 455.75 238 C454.7835 238 454 237.1046 454 236 C454 234.8954 454.7835 234 455.75 234 C456.7165 234 457.5 234.8954 457.5 236 Z"/>
<path id="nose-shadow" fill="#2052A1" stroke="none" stroke-width="0" stroke-linecap="round" stroke-linejoin="round" d="M503 240 C515 234 530 241 536 251 C523 243 513 241 503 240 Z"/>
<path id="nose-highlight" fill="#9EDAF2" stroke="none" stroke-width="0" stroke-linecap="round" stroke-linejoin="round" d="M496 252 C510 244 526 248 537 258 C530 254 522 254 515 257 C507 259 500 259 496 252 Z"/>
<path id="mouth-opening" fill="#152E4D" stroke="none" stroke-width="0" stroke-linecap="round" stroke-linejoin="round" d="M474 275 C487 282 501 282 516 275 C530 269 539 271 538 279 C537 290 525 295 513 294 C497 292 484 285 474 275 Z"/>
<path id="mouth-lower-reflection" fill="#2563C9" stroke="none" stroke-width="0" stroke-linecap="round" stroke-linejoin="round" d="M493 287 C503 289 513 291 522 288 C517 294 505 293 493 287 Z"/>
<path id="upper-lip" fill="#F8F5EC" stroke="none" stroke-width="0" stroke-linecap="round" stroke-linejoin="round" d="M472 272 C488 281 501 278 516 271 C530 264 540 267 541 275 C535 271 529 272 518 277 C500 285 484 282 472 272 Z"/>
<path id="mouth-corner" fill="#152E4D" stroke="none" stroke-width="0" stroke-linecap="round" stroke-linejoin="round" d="M473 271 C466 271 462 276 463 284 C466 279 470 276 475 275 Z"/>
<path id="chin-line" fill="#2563C9" stroke="none" stroke-width="0" stroke-linecap="round" stroke-linejoin="round" d="M526 308 C514 319 500 325 487 327 C505 327 519 319 526 308 Z"/>
</g>
<g id="dark-treatment">
<path fill="none" stroke="#F8F5EC" stroke-width="8.8" stroke-linecap="round" stroke-linejoin="round" d="M151 219 C117 209 105 164 66 136 C52 125 39 119 25 116 C44 151 53 205 88 233 C60 260 46 306 29 347 C70 333 113 298 137 269 C146 258 157 253 166 249 Z"/>
<path fill="none" stroke="#F8F5EC" stroke-width="8.4" stroke-linecap="round" stroke-linejoin="round" d="M176 172 C194 151 226 120 253 103 C266 93 281 101 298 116 L308 137 L206 174 C195 168 187 168 176 172 Z"/>
<path fill="none" stroke="#F8F5EC" stroke-width="8.9" stroke-linecap="round" stroke-linejoin="round" d="M286 138 C303 121 310 110 314 94 C327 84 328 76 331 65 C343 58 344 46 342 28 C374 42 399 74 414 126 L378 140 Z"/>
<path fill="none" stroke="#F8F5EC" stroke-width="8.4" stroke-linecap="round" stroke-linejoin="round" d="M163 278 C184 283 195 273 212 277 L250 311 L245 325 C208 326 182 309 163 278 Z"/>
<path fill="none" stroke="#F8F5EC" stroke-width="8.4" stroke-linecap="round" stroke-linejoin="round" d="M365 346 L403 347 C405 371 401 387 389 401 C379 388 364 377 365 346 Z"/>
<path fill="none" stroke="#F8F5EC" stroke-width="8.8" stroke-linecap="round" stroke-linejoin="round" d="M314 349 C334 348 351 352 368 361 C353 387 335 410 297 419 C305 395 296 367 314 349 Z"/>
<path fill="none" stroke="#F8F5EC" stroke-width="7.6" stroke-linecap="round" stroke-linejoin="round" d="M520 194 C533 188 546 197 550 211 C554 226 548 241 539 248 L521 231 Z"/>
<path fill="none" stroke="#F8F5EC" stroke-width="9.4" stroke-linecap="round" stroke-linejoin="round" d="M137 219 C171 216 206 176 256 150 C305 122 358 112 401 117 C461 123 501 154 522 193 C531 212 533 231 542 248 C550 256 552 267 546 277 C542 308 522 333 491 347 C451 367 408 374 364 365 C310 357 280 335 240 303 C201 272 173 250 138 250 C130 242 130 229 137 219 Z"/>
<path fill="none" stroke="#F8F5EC" stroke-width="8.6" stroke-linecap="round" stroke-linejoin="round" d="M349 274 C327 263 301 275 281 290 C252 311 226 344 208 370 C244 360 279 358 310 337 C331 323 347 303 349 274 Z"/>
<path id="dark-tail" fill="#6298E7" stroke="#152E4D" stroke-width="5.6" stroke-linecap="round" stroke-linejoin="round" d="M151 219 C117 209 105 164 66 136 C52 125 39 119 25 116 C44 151 53 205 88 233 C60 260 46 306 29 347 C70 333 113 298 137 269 C146 258 157 253 166 249 Z"/>
<path id="dark-tail-shadow" fill="#3570D2" stroke="none" stroke-width="0" stroke-linecap="round" stroke-linejoin="round" d="M30 119 C72 146 96 200 135 222 L151 228 C112 215 81 178 65 157 C49 139 40 126 30 119 Z M36 340 C73 315 111 273 145 248 L156 250 C119 276 93 318 36 340 Z"/>
<path id="dark-tail-upper-rib" fill="#2563C9" stroke="none" stroke-width="0" stroke-linecap="round" stroke-linejoin="round" d="M49 137 C83 164 96 196 130 220 C102 208 81 170 49 137 Z"/>
<path id="dark-tail-inner-rib" fill="#2563C9" stroke="none" stroke-width="0" stroke-linecap="round" stroke-linejoin="round" d="M63 187 C81 205 101 217 127 229 C102 226 78 209 63 187 Z"/>
<path id="dark-tail-lower-rib" fill="#2563C9" stroke="none" stroke-width="0" stroke-linecap="round" stroke-linejoin="round" d="M46 328 C75 286 100 260 128 248 C108 266 83 290 46 328 Z"/>
<path id="dark-tail-fold" fill="#3570D2" stroke="none" stroke-width="0" stroke-linecap="round" stroke-linejoin="round" d="M87 233 C105 228 123 228 138 233 C119 237 103 238 87 233 Z"/>
<path id="dark-tail-rim-light" fill="#D8EBEE" stroke="none" stroke-width="0" stroke-linecap="round" stroke-linejoin="round" d="M35 124 C69 139 90 168 108 192 C86 169 62 143 35 124 Z M38 331 C49 294 73 261 92 241 C72 271 55 305 38 331 Z"/>
<path id="dark-rear-dorsal" fill="#6298E7" stroke="#152E4D" stroke-width="5.2" stroke-linecap="round" stroke-linejoin="round" d="M176 172 C194 151 226 120 253 103 C266 93 281 101 298 116 L308 137 L206 174 C195 168 187 168 176 172 Z"/>
<path id="dark-rear-dorsal-shadow" fill="#3570D2" stroke="none" stroke-width="0" stroke-linecap="round" stroke-linejoin="round" d="M186 167 C217 140 242 114 264 107 C276 106 288 115 297 125 L291 135 C275 121 263 116 250 121 C226 132 206 151 186 167 Z"/>
<path id="dark-rear-dorsal-ribs" fill="#2563C9" stroke="none" stroke-width="0" stroke-linecap="round" stroke-linejoin="round" d="M245 113 C260 116 271 122 280 132 C267 126 258 118 245 113 Z M226 127 C241 128 258 137 266 145 C251 139 239 132 226 127 Z M210 143 C225 144 239 151 248 158 C233 153 222 146 210 143 Z"/>
<path id="dark-rear-dorsal-light" fill="#D8EBEE" stroke="none" stroke-width="0" stroke-linecap="round" stroke-linejoin="round" d="M187 164 C211 138 242 111 263 106 C241 117 215 140 187 164 Z"/>
<path id="dark-front-dorsal" fill="#6298E7" stroke="#152E4D" stroke-width="5.7" stroke-linecap="round" stroke-linejoin="round" d="M286 138 C303 121 310 110 314 94 C327 84 328 76 331 65 C343 58 344 46 342 28 C374 42 399 74 414 126 L378 140 Z"/>
<path id="dark-front-dorsal-shadow" fill="#3570D2" stroke="none" stroke-width="0" stroke-linecap="round" stroke-linejoin="round" d="M342 34 C359 59 371 90 376 131 L358 135 C351 99 343 79 331 69 C343 59 347 47 342 34 Z M314 96 C328 109 331 123 333 137 L302 142 C311 128 315 111 314 96 Z"/>
<path id="dark-dorsal-rib-one" fill="#2563C9" stroke="none" stroke-width="0" stroke-linecap="round" stroke-linejoin="round" d="M345 39 C369 64 382 96 386 133 L379 136 C375 97 363 67 345 39 Z"/>
<path id="dark-dorsal-rib-two" fill="#2563C9" stroke="none" stroke-width="0" stroke-linecap="round" stroke-linejoin="round" d="M329 71 C345 89 353 109 358 138 L352 140 C350 112 339 86 329 71 Z"/>
<path id="dark-dorsal-rib-three" fill="#2563C9" stroke="none" stroke-width="0" stroke-linecap="round" stroke-linejoin="round" d="M313 98 C324 110 331 125 333 142 L329 144 C326 126 321 112 313 98 Z"/>
<path id="dark-dorsal-light" fill="#F8F5EC" stroke="none" stroke-width="0" stroke-linecap="round" stroke-linejoin="round" d="M352 41 C378 59 399 90 409 124 L397 126 C387 91 373 62 352 41 Z"/>
<path id="dark-rear-lower-fin" fill="#6298E7" stroke="#152E4D" stroke-width="5.2" stroke-linecap="round" stroke-linejoin="round" d="M163 278 C184 283 195 273 212 277 L250 311 L245 325 C208 326 182 309 163 278 Z"/>
<path id="dark-rear-lower-shadow" fill="#3570D2" stroke="none" stroke-width="0" stroke-linecap="round" stroke-linejoin="round" d="M170 283 C185 300 209 307 236 313 L245 321 C215 319 189 308 170 283 Z"/>
<path id="dark-rear-lower-ribs" fill="#2563C9" stroke="none" stroke-width="0" stroke-linecap="round" stroke-linejoin="round" d="M181 287 C195 292 211 296 225 295 L231 301 C213 302 195 295 181 287 Z M193 306 C208 310 223 311 238 309 L243 315 C225 317 207 312 193 306 Z"/>
<path id="dark-far-pelvic-fin" fill="#6298E7" stroke="#152E4D" stroke-width="5.2" stroke-linecap="round" stroke-linejoin="round" d="M365 346 L403 347 C405 371 401 387 389 401 C379 388 364 377 365 346 Z"/>
<path id="dark-far-pelvic-ray" fill="#2563C9" stroke="none" stroke-width="0" stroke-linecap="round" stroke-linejoin="round" d="M379 355 C380 374 385 384 389 391 C389 375 389 364 387 354 Z"/>
<path id="dark-near-pelvic-fin" fill="#6298E7" stroke="#152E4D" stroke-width="5.6" stroke-linecap="round" stroke-linejoin="round" d="M314 349 C334 348 351 352 368 361 C353 387 335 410 297 419 C305 395 296 367 314 349 Z"/>
<path id="dark-near-pelvic-shadow" fill="#3570D2" stroke="none" stroke-width="0" stroke-linecap="round" stroke-linejoin="round" d="M312 360 C323 364 337 366 354 365 C341 384 324 400 304 412 C328 404 352 383 361 363 L317 352 Z"/>
<path id="dark-pelvic-rays" fill="#2563C9" stroke="none" stroke-width="0" stroke-linecap="round" stroke-linejoin="round" d="M313 368 C326 368 338 366 348 363 C336 377 320 389 306 396 C324 381 337 371 342 366 Z M307 383 C320 372 327 363 330 358 L324 357 C320 368 314 375 307 383 Z"/>
<path id="dark-far-eye-rim" fill="#F8F5EC" stroke="#152E4D" stroke-width="4.4" stroke-linecap="round" stroke-linejoin="round" d="M520 194 C533 188 546 197 550 211 C554 226 548 241 539 248 L521 231 Z"/>
<path id="dark-far-iris" fill="#9EDAF2" stroke="none" stroke-width="0" stroke-linecap="round" stroke-linejoin="round" d="M531 201 C541 200 546 209 546 219 C546 231 541 239 537 241 L529 224 Z"/>
<path id="dark-far-pupil" fill="#152E4D" stroke="none" stroke-width="0" stroke-linecap="round" stroke-linejoin="round" d="M532 201 C541 199 545 208 545 217 C545 224 542 229 538 230 L530 218 Z"/>
<path id="dark-far-eye-glint" fill="#F8F5EC" stroke="none" stroke-width="0" stroke-linecap="round" stroke-linejoin="round" d="M542.5 205.5 C542.5 207.9853 541.0449 210 539.25 210 C537.4551 210 536 207.9853 536 205.5 C536 203.0147 537.4551 201 539.25 201 C541.0449 201 542.5 203.0147 542.5 205.5 Z"/>
<path id="dark-body" fill="#3570D2" stroke="#152E4D" stroke-width="6.2" stroke-linecap="round" stroke-linejoin="round" d="M137 219 C171 216 206 176 256 150 C305 122 358 112 401 117 C461 123 501 154 522 193 C531 212 533 231 542 248 C550 256 552 267 546 277 C542 308 522 333 491 347 C451 367 408 374 364 365 C310 357 280 335 240 303 C201 272 173 250 138 250 C130 242 130 229 137 219 Z"/>
<path id="dark-back-shadow" fill="#2563C9" stroke="none" stroke-width="0" stroke-linecap="round" stroke-linejoin="round" d="M137 220 C180 209 208 174 256 150 C305 122 358 112 401 117 C432 120 457 131 476 143 C410 122 369 136 331 153 C266 181 211 208 137 229 Z"/>
<path id="dark-flank" fill="#6298E7" stroke="none" stroke-width="0" stroke-linecap="round" stroke-linejoin="round" d="M136 232 C202 224 243 200 291 181 C325 168 355 162 387 160 C363 185 350 215 351 245 C352 269 362 288 378 304 C324 322 284 310 245 287 C202 263 174 249 138 247 Z"/>
<path id="dark-flank-shadow" fill="#3570D2" stroke="none" stroke-width="0" stroke-linecap="round" stroke-linejoin="round" d="M145 245 C193 249 233 272 270 288 C310 305 339 299 365 287 C371 295 379 302 387 308 C340 326 304 318 266 297 C218 272 182 254 145 250 Z"/>
<path id="dark-belly" fill="#F8F5EC" stroke="none" stroke-width="0" stroke-linecap="round" stroke-linejoin="round" d="M143 248 C181 248 204 264 243 289 C273 311 303 328 341 335 C369 343 394 345 421 338 C472 332 513 316 539 288 C526 328 493 349 451 361 C414 371 383 369 350 362 C306 353 277 332 240 303 C201 272 173 250 143 248 Z"/>
<path id="dark-belly-shadow" fill="#D8EBEE" stroke="none" stroke-width="0" stroke-linecap="round" stroke-linejoin="round" d="M288 333 C353 360 393 359 445 349 C483 342 513 323 536 298 C523 333 488 350 451 361 C393 379 335 356 288 333 Z"/>
<path id="dark-face-cream" fill="#F8F5EC" stroke="none" stroke-width="0" stroke-linecap="round" stroke-linejoin="round" d="M402 185 C384 204 380 230 395 247 C413 270 446 261 474 251 C493 244 514 249 539 263 C545 277 538 301 522 318 C499 341 464 352 435 352 C399 341 372 325 362 300 C345 260 361 208 402 185 Z"/>
<path id="dark-face-shadow" fill="#D8EBEE" stroke="none" stroke-width="0" stroke-linecap="round" stroke-linejoin="round" d="M397 191 C369 219 363 250 373 277 C381 299 392 309 407 317 C384 312 369 296 365 276 C359 245 371 209 397 191 Z M534 291 C517 326 476 342 435 346 C395 347 375 336 359 331 C380 349 408 359 438 356 C485 350 526 330 534 291 Z"/>
<path id="dark-cheek-reflection" fill="#D8EBEE" stroke="none" stroke-width="0" stroke-linecap="round" stroke-linejoin="round" d="M393 267 C397 290 410 306 430 313 C411 314 396 298 393 267 Z"/>
<path id="dark-body-outline" fill="none" stroke="#152E4D" stroke-width="6.2" stroke-linecap="round" stroke-linejoin="round" d="M137 219 C171 216 206 176 256 150 C305 122 358 112 401 117 C461 123 501 154 522 193 C531 212 533 231 542 248 C550 256 552 267 546 277 C542 308 522 333 491 347 C451 367 408 374 364 365 C310 357 280 335 240 303 C201 272 173 250 138 250 C130 242 130 229 137 219 Z"/>
<path id="dark-gill-cover" fill="#152E4D" stroke="none" stroke-width="0" stroke-linecap="round" stroke-linejoin="round" d="M403 174 C374 191 354 223 352 254 C349 292 369 322 412 338 C376 331 351 312 346 282 C338 238 359 195 403 174 Z"/>
<path id="dark-gill-light" fill="#9EDAF2" stroke="none" stroke-width="0" stroke-linecap="round" stroke-linejoin="round" d="M393 189 C369 220 365 252 377 279 C383 293 391 303 402 311 C377 300 363 279 365 254 C366 225 376 204 393 189 Z"/>
<path id="dark-lateral-flash" fill="#F8F5EC" stroke="none" stroke-width="0" stroke-linecap="round" stroke-linejoin="round" d="M146 232 C217 222 267 198 316 191 C342 187 362 185 380 186 C359 190 339 192 317 196 C267 202 218 226 146 235 Z"/>
<path id="dark-crown-reflection" fill="#9EDAF2" stroke="none" stroke-width="0" stroke-linecap="round" stroke-linejoin="round" d="M248 167 C296 135 350 120 399 124 C440 127 474 144 496 167 C464 145 433 134 399 131 C346 128 292 145 248 167 Z"/>
<path id="dark-forehead-glint" fill="#F8F5EC" stroke="none" stroke-width="0" stroke-linecap="round" stroke-linejoin="round" d="M457 151 C477 156 494 167 505 186 C487 174 470 161 457 151 Z"/>
<path id="dark-pectoral-fin" fill="#6298E7" stroke="#152E4D" stroke-width="5.4" stroke-linecap="round" stroke-linejoin="round" d="M349 274 C327 263 301 275 281 290 C252 311 226 344 208 370 C244 360 279 358 310 337 C331 323 347 303 349 274 Z"/>
<path id="dark-pectoral-shadow" fill="#3570D2" stroke="none" stroke-width="0" stroke-linecap="round" stroke-linejoin="round" d="M215 365 C258 348 304 325 342 283 C334 310 316 330 294 341 C264 357 239 359 215 365 Z"/>
<path id="dark-pectoral-leading-light" fill="#D8EBEE" stroke="none" stroke-width="0" stroke-linecap="round" stroke-linejoin="round" d="M218 358 C250 312 295 274 337 277 C298 282 255 316 218 358 Z"/>
<path id="dark-pectoral-ray-one" fill="#2563C9" stroke="none" stroke-width="0" stroke-linecap="round" stroke-linejoin="round" d="M233 350 C273 316 309 292 340 283 C312 299 275 322 233 350 Z"/>
<path id="dark-pectoral-ray-two" fill="#2563C9" stroke="none" stroke-width="0" stroke-linecap="round" stroke-linejoin="round" d="M266 347 C295 326 320 305 341 287 C325 312 297 334 266 347 Z"/>
<path id="dark-pectoral-root" fill="#2563C9" stroke="none" stroke-width="0" stroke-linecap="round" stroke-linejoin="round" d="M337 274 C343 278 344 286 341 295 C347 289 350 281 348 275 Z"/>
<path id="dark-scale-1" fill="#2563C9" stroke="none" stroke-width="0" stroke-linecap="round" stroke-linejoin="round" d="M232 224 C223 232 222 241 230 247 C216 243 214 232 232 224 Z"/>
<path id="dark-scale-2" fill="#2563C9" stroke="none" stroke-width="0" stroke-linecap="round" stroke-linejoin="round" d="M256 215 C247 225 247 235 255 241 C240 237 238 224 256 215 Z"/>
<path id="dark-scale-3" fill="#2563C9" stroke="none" stroke-width="0" stroke-linecap="round" stroke-linejoin="round" d="M283 207 C274 216 274 228 282 234 C267 230 266 215 283 207 Z"/>
<path id="dark-scale-4" fill="#2563C9" stroke="none" stroke-width="0" stroke-linecap="round" stroke-linejoin="round" d="M309 202 C302 211 302 221 309 227 C295 223 294 210 309 202 Z"/>
<path id="dark-scale-5" fill="#2563C9" stroke="none" stroke-width="0" stroke-linecap="round" stroke-linejoin="round" d="M252 247 C244 255 244 263 251 269 C238 265 236 254 252 247 Z"/>
<path id="dark-scale-6" fill="#2563C9" stroke="none" stroke-width="0" stroke-linecap="round" stroke-linejoin="round" d="M281 239 C273 249 274 257 280 263 C267 259 265 247 281 239 Z"/>
<path id="dark-scale-7" fill="#2563C9" stroke="none" stroke-width="0" stroke-linecap="round" stroke-linejoin="round" d="M308 233 C301 241 301 249 308 254 C295 251 294 240 308 233 Z"/>
<path id="dark-scale-glints" fill="#D8EBEE" stroke="none" stroke-width="0" stroke-linecap="round" stroke-linejoin="round" d="M233 225 C227 232 228 239 233 242 C224 239 224 231 233 225 Z M283 208 C278 216 279 224 284 228 C275 225 275 215 283 208 Z M281 240 C276 248 277 254 282 258 C273 256 273 247 281 240 Z"/>
<path id="dark-near-eye-rim" fill="#F8F5EC" stroke="#152E4D" stroke-width="4.5" stroke-linecap="round" stroke-linejoin="round" d="M416 199 C431 187 449 194 459 210 C471 230 466 249 452 259 C436 270 416 260 410 243 C404 227 405 208 416 199 Z"/>
<path id="dark-near-eye-shadow" fill="#D8EBEE" stroke="none" stroke-width="0" stroke-linecap="round" stroke-linejoin="round" d="M416 203 C408 221 412 243 427 253 C438 261 450 257 458 250 C446 265 427 264 416 250 C405 237 404 216 416 203 Z"/>
<path id="dark-near-iris" fill="#9EDAF2" stroke="none" stroke-width="0" stroke-linecap="round" stroke-linejoin="round" d="M438 200 C451 201 462 215 463 229 C465 243 457 252 447 253 C434 254 423 241 424 226 C423 215 428 205 438 200 Z"/>
<path id="dark-iris-depth" fill="#3570D2" stroke="none" stroke-width="0" stroke-linecap="round" stroke-linejoin="round" d="M429 210 C425 227 431 242 443 247 C453 251 460 242 462 238 C460 252 448 258 437 249 C426 241 422 224 429 210 Z"/>
<path id="dark-near-pupil" fill="#152E4D" stroke="none" stroke-width="0" stroke-linecap="round" stroke-linejoin="round" d="M440 201 C452 201 461 212 462 226 C463 238 456 245 447 244 C436 242 430 231 431 219 C431 210 434 204 440 201 Z"/>
<path id="dark-near-eye-glint" fill="#F8F5EC" stroke="none" stroke-width="0" stroke-linecap="round" stroke-linejoin="round" d="M450 211 C450 214.3137 447.7614 217 445 217 C442.2386 217 440 214.3137 440 211 C440 207.6863 442.2386 205 445 205 C447.7614 205 450 207.6863 450 211 Z"/>
<path id="dark-near-eye-small-glint" fill="#D8EBEE" stroke="none" stroke-width="0" stroke-linecap="round" stroke-linejoin="round" d="M457.5 236 C457.5 237.1046 456.7165 238 455.75 238 C454.7835 238 454 237.1046 454 236 C454 234.8954 454.7835 234 455.75 234 C456.7165 234 457.5 234.8954 457.5 236 Z"/>
<path id="dark-nose-shadow" fill="#2563C9" stroke="none" stroke-width="0" stroke-linecap="round" stroke-linejoin="round" d="M503 240 C515 234 530 241 536 251 C523 243 513 241 503 240 Z"/>
<path id="dark-nose-highlight" fill="#9EDAF2" stroke="none" stroke-width="0" stroke-linecap="round" stroke-linejoin="round" d="M496 252 C510 244 526 248 537 258 C530 254 522 254 515 257 C507 259 500 259 496 252 Z"/>
<path id="dark-mouth-opening" fill="#152E4D" stroke="none" stroke-width="0" stroke-linecap="round" stroke-linejoin="round" d="M474 275 C487 282 501 282 516 275 C530 269 539 271 538 279 C537 290 525 295 513 294 C497 292 484 285 474 275 Z"/>
<path id="dark-mouth-lower-reflection" fill="#3570D2" stroke="none" stroke-width="0" stroke-linecap="round" stroke-linejoin="round" d="M493 287 C503 289 513 291 522 288 C517 294 505 293 493 287 Z"/>
<path id="dark-upper-lip" fill="#F8F5EC" stroke="none" stroke-width="0" stroke-linecap="round" stroke-linejoin="round" d="M472 272 C488 281 501 278 516 271 C530 264 540 267 541 275 C535 271 529 272 518 277 C500 285 484 282 472 272 Z"/>
<path id="dark-mouth-corner" fill="#152E4D" stroke="none" stroke-width="0" stroke-linecap="round" stroke-linejoin="round" d="M473 271 C466 271 462 276 463 284 C466 279 470 276 475 275 Z"/>
<path id="dark-chin-line" fill="#3570D2" stroke="none" stroke-width="0" stroke-linecap="round" stroke-linejoin="round" d="M526 308 C514 319 500 325 487 327 C505 327 519 319 526 308 Z"/>
</g>
</svg>